<svg width="42" height="42" viewBox="0 0 42 42" fill="none" xmlns="http://www.w3.org/2000/svg">
<path d="M21 41C32.0457 41 41 32.0457 41 21C41 9.9543 32.0457 1 21 1C9.9543 1 1 9.9543 1 21C1 32.0457 9.9543 41 21 41Z" fill="white"/>
<path fill-rule="evenodd" clip-rule="evenodd" d="M39.875 21C39.875 20.3611 39.8433 19.7263 39.7803 19.0969C39.7477 18.7707 39.7066 18.4462 39.6573 18.1234L41.1401 17.8967C41.1933 18.2452 41.2376 18.5955 41.2729 18.9475C41.3408 19.6265 41.375 20.3112 41.375 21C41.375 32.2528 32.2528 41.375 21 41.375C9.7472 41.375 0.625 32.2528 0.625 21C0.625 9.7472 9.7472 0.625 21 0.625C22.1915 0.625 23.3702 0.727357 24.5268 0.929257L24.844 0.989L24.8447 0.987361L25.061 1.03L25.1033 1.03849L25.133 1.04458C26.0677 1.2372 26.9848 1.49502 27.8788 1.81563L27.3725 3.22758C26.5448 2.93076 25.6957 2.69206 24.8312 2.51391L24.802 2.507L24.8027 2.50807C23.5609 2.2541 22.289 2.125 21 2.125C10.5756 2.125 2.125 10.5756 2.125 21C2.125 31.4244 10.5756 39.875 21 39.875C31.4244 39.875 39.875 31.4244 39.875 21ZM38.2454 10.1445C38.7998 11.0235 39.2864 11.9439 39.7004 12.8981L38.3243 13.4951C37.9409 12.6114 37.4902 11.759 36.9767 10.9448L38.2454 10.1445ZM32.4845 4.16774C33.3426 4.75433 34.155 5.40579 34.9143 6.11588L33.8897 7.21144C33.186 6.55335 32.4331 5.94963 31.638 5.40608L32.4845 4.16774Z" fill="#090951"/>
<path fill-rule="evenodd" clip-rule="evenodd" d="M13.8557 13.8557C14.1242 13.5872 14.5456 13.5649 14.8396 13.7886L14.9164 13.8557L20.75 19.6893L26.5836 13.8557C26.8765 13.5628 27.3514 13.5628 27.6443 13.8557C27.9128 14.1242 27.9352 14.5456 27.7114 14.8396L27.6443 14.9164L21.8107 20.75L27.6443 26.5836C27.9372 26.8765 27.9372 27.3514 27.6443 27.6443C27.3758 27.9128 26.9544 27.9351 26.6604 27.7114L26.5836 27.6443L20.75 21.8107L14.9164 27.6443C14.6235 27.9372 14.1486 27.9372 13.8557 27.6443C13.5872 27.3758 13.5649 26.9544 13.7886 26.6604L13.8557 26.5836L19.6893 20.75L13.8557 14.9164C13.5628 14.6235 13.5628 14.1486 13.8557 13.8557Z" fill="#090951"/>
</svg>
