<svg width="226" height="48" viewBox="0 0 226 48" fill="none" xmlns="http://www.w3.org/2000/svg">
<path d="M202.149 47.1849H24.4104C11.4446 47.1849 1 36.6792 1 23.6377V23.5472C1 10.5057 11.4446 0 24.4104 0H202.149C215.115 0 225.559 10.5057 225.559 23.5472V23.6377C225.559 36.5887 215.115 47.1849 202.149 47.1849Z" fill="white"/>
<path d="M148.035 0.90566H206.201C216.465 0.90566 224.839 11.0491 224.839 23.5472" stroke="#090951" stroke-width="1.5" stroke-miterlimit="10" stroke-dasharray="7 7"/>
<path d="M224.839 23.5472C224.839 36.0453 216.555 46.1887 206.201 46.1887H19.9084C9.64383 46.1887 1.27013 36.0453 1.27013 23.5472C1.27013 11.0491 9.55379 0.90566 19.9084 0.90566H143.083" stroke="#090951" stroke-width="1.5" stroke-miterlimit="10"/>
</svg>