<svg width="82" height="50" viewBox="0 0 82 50" fill="none" xmlns="http://www.w3.org/2000/svg">
<path d="M25 49L57 49C70.2548 49 81 38.2548 81 25C81 11.7452 70.2548 0.999998 57 0.999998L25 0.999998C11.7452 0.999998 1 11.7452 1 25C1 38.2548 11.7452 49 25 49Z" fill="white"/>
<path style="mix-blend-mode:soft-light" d="M25 49L57 49C70.2548 49 81 38.2548 81 25C81 11.7452 70.2548 0.999998 57 0.999998L25 0.999998C11.7452 0.999998 1 11.7452 1 25C1 38.2548 11.7452 49 25 49Z" fill="url(#paint0_linear_94:8050)" fill-opacity="0.4"/>
<path d="M80.4255 30.2433C78.0337 40.9764 68.4539 49 57 49L25 49C11.7452 49 1 38.2548 1 25C1 13.033 9.75861 3.11168 21.2151 1.29675C22.448 1.10143 23.7122 0.999998 25 0.999998L52 0.999998" stroke="#090951" stroke-width="1.5"/>
<mask id="mask0_94:8050" style="mask-type:alpha" maskUnits="userSpaceOnUse" x="55" y="0" width="27" height="27">
<path d="M55 27L82 27V-1.90735e-06L55 -1.90735e-06V27Z" fill="white"/>
</mask>
<g mask="url(#mask0_94:8050)">
<path d="M45.5 0.999998H57C70.2548 0.999998 81 11.7452 81 25" stroke="#090951" stroke-width="1.5" stroke-dasharray="5 9"/>
</g>
<path fill-rule="evenodd" clip-rule="evenodd" d="M51.2795 24.441C51.7402 24.6713 51.7402 25.3287 51.2795 25.559L33.2795 34.559C32.8088 34.7944 32.2757 34.3782 32.3899 33.8644L34.36 25L32.3899 16.1356C32.2829 15.6539 32.7447 15.258 33.1907 15.4044L33.2795 15.441L51.2795 24.441ZM49.602 25L33.896 17.146L35.502 24.3745L43 24.375C43.3452 24.375 43.625 24.6548 43.625 25C43.625 25.3138 43.3937 25.5736 43.0924 25.6182L43 25.625L35.502 25.6245L33.896 32.853L49.602 25Z" fill="#090951"/>
<defs>
<linearGradient id="paint0_linear_94:8050" x1="1" y1="16.36" x2="65.484" y2="58.8811" gradientUnits="userSpaceOnUse">
<stop/>
<stop offset="1" stop-color="white"/>
</linearGradient>
</defs>
</svg>
