<svg width="24" height="21" viewBox="0 0 24 21" fill="none" xmlns="http://www.w3.org/2000/svg">
<path fill-rule="evenodd" clip-rule="evenodd" d="M5.37005 0.220578L5.2513 0.329505L0.267305 5.625L5.2513 10.9205C5.6648 11.3598 6.33521 11.3598 6.7487 10.9205C7.12461 10.5211 7.15878 9.8961 6.85122 9.45568L6.7487 9.3295L4.32141 6.75H16.7294C19.5699 6.75 21.8824 9.26281 21.8824 12.375C21.8824 15.3868 19.7167 17.8373 17.0026 17.9922L16.7294 18H12.5882C12.0035 18 11.5294 18.5037 11.5294 19.125C11.5294 19.6945 11.9277 20.1652 12.4446 20.2397L12.5882 20.25H16.7294C20.7502 20.25 24 16.7187 24 12.375C24 8.14272 20.9148 4.68163 17.0371 4.50692L16.7294 4.5H4.32141L6.7487 1.9205C7.12461 1.5211 7.15878 0.8961 6.85122 0.455683L6.7487 0.329505C6.3728 -0.069895 5.78456 -0.106204 5.37005 0.220578Z" fill="#090951"/>
</svg>
